<?xml version="1.0" encoding="UTF-8"?>
<svg width="24px" height="24px" viewBox="0 0 24 24" version="1.1" xmlns="http://www.w3.org/2000/svg" xmlns:xlink="http://www.w3.org/1999/xlink">
    <!-- Generator: Sketch 54.1 (76490) - https://sketchapp.com -->
    <title>Google_Logo</title>
    <desc>Created with Sketch.</desc>
    <defs>
        <path d="M23.7209302,9.81818182 L12.2790698,9.81818182 L12.2790698,14.4545455 L18.8651163,14.4545455 C18.2511628,17.4 15.6837209,19.0909091 12.2790698,19.0909091 C8.26046512,19.0909091 5.02325581,15.9272727 5.02325581,12 C5.02325581,8.07272727 8.26046512,4.90909091 12.2790698,4.90909091 C14.0093023,4.90909091 15.572093,5.50909091 16.8,6.49090909 L20.372093,3 C18.1953488,1.14545455 15.4046512,0 12.2790698,0 C5.46976744,0 0,5.34545455 0,12 C0,18.6545455 5.46976744,24 12.2790698,24 C18.4186047,24 24,19.6363636 24,12 C24,11.2909091 23.8883721,10.5272727 23.7209302,9.81818182 Z" id="path-1"></path>
        <path d="M23.7209302,9.81818182 L12.2790698,9.81818182 L12.2790698,14.4545455 L18.8651163,14.4545455 C18.2511628,17.4 15.6837209,19.0909091 12.2790698,19.0909091 C8.26046512,19.0909091 5.02325581,15.9272727 5.02325581,12 C5.02325581,8.07272727 8.26046512,4.90909091 12.2790698,4.90909091 C14.0093023,4.90909091 15.572093,5.50909091 16.8,6.49090909 L20.372093,3 C18.1953488,1.14545455 15.4046512,0 12.2790698,0 C5.46976744,0 0,5.34545455 0,12 C0,18.6545455 5.46976744,24 12.2790698,24 C18.4186047,24 24,19.6363636 24,12 C24,11.2909091 23.8883721,10.5272727 23.7209302,9.81818182 Z" id="path-3"></path>
        <path d="M23.7209302,9.81818182 L12.2790698,9.81818182 L12.2790698,14.4545455 L18.8651163,14.4545455 C18.2511628,17.4 15.6837209,19.0909091 12.2790698,19.0909091 C8.26046512,19.0909091 5.02325581,15.9272727 5.02325581,12 C5.02325581,8.07272727 8.26046512,4.90909091 12.2790698,4.90909091 C14.0093023,4.90909091 15.572093,5.50909091 16.8,6.49090909 L20.372093,3 C18.1953488,1.14545455 15.4046512,0 12.2790698,0 C5.46976744,0 0,5.34545455 0,12 C0,18.6545455 5.46976744,24 12.2790698,24 C18.4186047,24 24,19.6363636 24,12 C24,11.2909091 23.8883721,10.5272727 23.7209302,9.81818182 Z" id="path-5"></path>
        <path d="M23.7209302,9.81818182 L12.2790698,9.81818182 L12.2790698,14.4545455 L18.8651163,14.4545455 C18.2511628,17.4 15.6837209,19.0909091 12.2790698,19.0909091 C8.26046512,19.0909091 5.02325581,15.9272727 5.02325581,12 C5.02325581,8.07272727 8.26046512,4.90909091 12.2790698,4.90909091 C14.0093023,4.90909091 15.572093,5.50909091 16.8,6.49090909 L20.372093,3 C18.1953488,1.14545455 15.4046512,0 12.2790698,0 C5.46976744,0 0,5.34545455 0,12 C0,18.6545455 5.46976744,24 12.2790698,24 C18.4186047,24 24,19.6363636 24,12 C24,11.2909091 23.8883721,10.5272727 23.7209302,9.81818182 Z" id="path-7"></path>
    </defs>
    <g id="Mobile" stroke="none" stroke-width="1" fill="none" fill-rule="evenodd">
        <g id="001_Landing_No-Login" transform="translate(-93.000000, -526.000000)">
            <g id="Button-/-Google" transform="translate(29.000000, 510.000000)">
                <g id="Inner" transform="translate(64.000000, 16.000000)">
                    <g id="Google_Logo">
                        <g id="Clipped">
                            <mask id="mask-2" fill="white">
                                <use xlink:href="#path-1"></use>
                            </mask>
                            <g id="a"></g>
                            <polygon id="Path" fill="#FBBC05" fill-rule="nonzero" mask="url(#mask-2)" points="-1.11627907 19.0909091 -1.11627907 4.90909091 8.37209302 12"></polygon>
                        </g>
                        <g id="Clipped">
                            <mask id="mask-4" fill="white">
                                <use xlink:href="#path-3"></use>
                            </mask>
                            <g id="a"></g>
                            <polygon id="Path" fill="#EA4335" fill-rule="nonzero" mask="url(#mask-4)" points="-1.11627907 4.90909091 8.37209302 12 12.2790698 8.67272727 25.6744186 6.54545455 25.6744186 -1.09090909 -1.11627907 -1.09090909"></polygon>
                        </g>
                        <g id="Clipped">
                            <mask id="mask-6" fill="white">
                                <use xlink:href="#path-5"></use>
                            </mask>
                            <g id="a"></g>
                            <polygon id="Path" fill="#34A853" fill-rule="nonzero" mask="url(#mask-6)" points="-1.11627907 19.0909091 15.627907 6.54545455 20.0372093 7.09090909 25.6744186 -1.09090909 25.6744186 25.0909091 -1.11627907 25.0909091"></polygon>
                        </g>
                        <g id="Clipped">
                            <mask id="mask-8" fill="white">
                                <use xlink:href="#path-7"></use>
                            </mask>
                            <g id="a"></g>
                            <polygon id="Path" fill="#4285F4" fill-rule="nonzero" mask="url(#mask-8)" points="25.6744186 25.0909091 8.37209302 12 6.13953488 10.3636364 25.6744186 4.90909091"></polygon>
                        </g>
                    </g>
                </g>
            </g>
        </g>
    </g>
</svg>